<?xml version="1.0" standalone="no"?>
<!DOCTYPE svg PUBLIC "-//W3C//DTD SVG 20010904//EN"
 "http://www.w3.org/TR/2001/REC-SVG-20010904/DTD/svg10.dtd">
<svg version="1.0" xmlns="http://www.w3.org/2000/svg"
 width="200.000000pt" height="200.000000pt" viewBox="0 0 200.000000 200.000000"
 preserveAspectRatio="xMidYMid meet">
<metadata>
Created by potrace 1.14, written by Peter Selinger 2001-2017
</metadata>
<g transform="translate(0.000000,200.000000) scale(0.100000,-0.100000)"
fill="#000000" stroke="none">
<path d="M226 1968 c-37 -14 -72 -44 -94 -83 -16 -28 -17 -97 -20 -874 -2
-842 -2 -844 19 -888 15 -30 35 -52 67 -71 l47 -27 738 -3 c470 -1 752 1 775
8 51 13 108 70 122 118 7 27 9 256 8 690 l-3 651 -87 -66 -88 -67 0 -578 0
-578 -710 0 -710 0 0 38 c-1 20 -2 381 -3 802 l-2 765 533 -1 534 -1 46 59
c26 33 55 73 65 89 l19 29 -614 -1 c-402 0 -623 -4 -642 -11z"/>
<path d="M1671 1933 c-17 -20 -28 -39 -24 -44 22 -20 177 -139 182 -139 9 0
51 77 51 92 0 26 -35 78 -69 103 -53 38 -99 34 -140 -12z"/>
<path d="M1570 1811 c0 -5 -6 -16 -13 -23 -7 -7 -37 -47 -67 -88 -30 -41 -57
-77 -60 -80 -19 -16 -219 -291 -223 -306 -3 -11 -11 -56 -18 -102 -14 -88 -7
-120 24 -114 35 6 176 79 199 103 11 11 104 133 170 224 4 6 18 24 31 40 14
17 54 69 90 117 l65 88 -66 52 c-37 29 -69 55 -72 58 -14 16 -60 39 -60 31z"/>
<path d="M556 854 c-11 -28 -6 -101 7 -112 19 -16 864 -15 874 1 11 18 11 100
0 115 -7 9 -108 12 -442 12 -386 0 -434 -2 -439 -16z"/>
<path d="M560 539 c-13 -22 -10 -103 4 -111 6 -4 203 -8 438 -8 397 0 428 1
437 18 10 20 9 98 -3 109 -4 4 -201 8 -438 8 -383 0 -431 -1 -438 -16z"/>
</g>
</svg>
